<svg width="54" height="54" viewBox="0 0 54 54" fill="none" xmlns="http://www.w3.org/2000/svg">
<rect x="4" y="4" width="50" height="50" rx="10" fill="#0D6145"/>
<rect width="50" height="50" rx="10" fill="#10B981"/>
<path d="M15.5405 37.32C14.0472 37.32 12.7352 37.0427 11.6045 36.488C10.4952 35.912 9.63117 35.112 9.0125 34.088C8.41517 33.0427 8.1165 31.816 8.1165 30.408V20.232C8.1165 18.8027 8.41517 17.576 9.0125 16.552C9.63117 15.528 10.4952 14.7387 11.6045 14.184C12.7352 13.608 14.0472 13.32 15.5405 13.32C17.0552 13.32 18.3565 13.608 19.4445 14.184C20.5538 14.7387 21.4178 15.528 22.0365 16.552C22.6552 17.576 22.9645 18.8027 22.9645 20.232H18.9325C18.9325 19.1227 18.6338 18.28 18.0365 17.704C17.4605 17.128 16.6285 16.84 15.5405 16.84C14.4525 16.84 13.6098 17.128 13.0125 17.704C12.4152 18.28 12.1165 19.112 12.1165 20.2V30.408C12.1165 31.496 12.4152 32.3387 13.0125 32.936C13.6098 33.512 14.4525 33.8 15.5405 33.8C16.6285 33.8 17.4605 33.512 18.0365 32.936C18.6338 32.3387 18.9325 31.496 18.9325 30.408H22.9645C22.9645 31.7947 22.6552 33.0107 22.0365 34.056C21.4178 35.1013 20.5538 35.912 19.4445 36.488C18.3565 37.0427 17.0552 37.32 15.5405 37.32ZM34.728 37.32C33.2347 37.32 31.9227 37.0427 30.792 36.488C29.6827 35.912 28.8187 35.112 28.2 34.088C27.6027 33.0427 27.304 31.816 27.304 30.408V20.232C27.304 18.8027 27.6027 17.576 28.2 16.552C28.8187 15.528 29.6827 14.7387 30.792 14.184C31.9227 13.608 33.2347 13.32 34.728 13.32C36.2427 13.32 37.544 13.608 38.632 14.184C39.7413 14.7387 40.6053 15.528 41.224 16.552C41.8427 17.576 42.152 18.8027 42.152 20.232H38.12C38.12 19.1227 37.8213 18.28 37.224 17.704C36.648 17.128 35.816 16.84 34.728 16.84C33.64 16.84 32.7973 17.128 32.2 17.704C31.6027 18.28 31.304 19.112 31.304 20.2V30.408C31.304 31.496 31.6027 32.3387 32.2 32.936C32.7973 33.512 33.64 33.8 34.728 33.8C35.816 33.8 36.648 33.512 37.224 32.936C37.8213 32.3387 38.12 31.496 38.12 30.408H42.152C42.152 31.7947 41.8427 33.0107 41.224 34.056C40.6053 35.1013 39.7413 35.912 38.632 36.488C37.544 37.0427 36.2427 37.32 34.728 37.32Z" fill="white"/>
</svg>
